<?xml version="1.0" ?><svg enable-background="new 0 0 512 512" id="Layer_1" version="1.1" viewBox="0 0 512 512" xml:space="preserve" xmlns="http://www.w3.org/2000/svg" xmlns:xlink="http://www.w3.org/1999/xlink"><circle cx="256" cy="256" fill="#488CAF" r="183.7"/><linearGradient gradientUnits="userSpaceOnUse" id="SVGID_1_" x1="255.9998" x2="255.9998" y1="432.6668" y2="79.3338"><stop offset="0" style="stop-color:#FFFFFF;stop-opacity:0"/><stop offset="1" style="stop-color:#FFFFFF;stop-opacity:0.8"/></linearGradient><path d="M256,432.7c-97.4,0-176.7-79.3-176.7-176.7S158.6,79.3,256,79.3S432.7,158.6,432.7,256  S353.4,432.7,256,432.7z" fill="url(#SVGID_1_)"/><path d="M401.9,306.7c0,95.2-65.2,11.1-145.7,11.1s-145.7,84.1-145.7-11.1s65.2-172.4,145.7-172.4  S401.9,211.5,401.9,306.7z" fill="#0E0A09"/><path d="M256.3,317.8c42.2,0,80.2,23.1,106.8,31.4c-7.9-44-52.7-77.8-106.8-77.8s-98.9,33.7-106.8,77.8  C176.1,340.9,214.1,317.8,256.3,317.8z" fill="#A7A9AC"/><g><path d="M193.6,150.2l20.2,30.5v-39.5C213.9,141.2,197.5,148,193.6,150.2z" fill="#FFFFFF"/><path d="M203.7,327.5c0,0-29.2-27.4-33.2-40.7c0,0-6,29,0,53.9C170.5,340.6,196.2,329.9,203.7,327.5z" fill="#FFFFFF"/><path d="M318.9,150.2l-20.2,30.5v-39.5C298.7,141.2,315.1,148,318.9,150.2z" fill="#FFFFFF"/><path d="M308.8,327.5c0,0,29.2-27.4,33.2-40.7c0,0,6,29,0,53.9C342,340.6,316.3,329.9,308.8,327.5z" fill="#FFFFFF"/></g></svg>