<?xml version="1.0" ?><svg enable-background="new 0 0 512 512" id="Layer_1" version="1.1" viewBox="0 0 512 512" xml:space="preserve" xmlns="http://www.w3.org/2000/svg" xmlns:xlink="http://www.w3.org/1999/xlink"><circle cx="256" cy="256" fill="#B97A5B" r="183.7"/><linearGradient gradientUnits="userSpaceOnUse" id="SVGID_1_" x1="256" x2="256" y1="431.2966" y2="77.9636"><stop offset="0" style="stop-color:#FFFFFF;stop-opacity:0"/><stop offset="1" style="stop-color:#FFFFFF;stop-opacity:0.8"/></linearGradient><path d="M256,431.3c-97.4,0-176.7-79.3-176.7-176.7S158.6,78,256,78s176.7,79.3,176.7,176.7  S353.4,431.3,256,431.3z" fill="url(#SVGID_1_)"/><path d="M291,311.2c0,9.4-15.7,32-35,32s-35-22.6-35-32c0-9.4,15.7-17,35-17S291,301.8,291,311.2z" fill="#724938"/><linearGradient gradientUnits="userSpaceOnUse" id="SVGID_2_" x1="256" x2="256" y1="314.002" y2="298.159"><stop offset="0" style="stop-color:#FFFFFF;stop-opacity:0"/><stop offset="1" style="stop-color:#FFFFFF;stop-opacity:0.8"/></linearGradient><ellipse cx="256" cy="306.1" fill="url(#SVGID_2_)" rx="24.3" ry="7.9"/><g><circle cx="340.7" cy="266.8" fill="#724938" r="35"/><circle cx="334.7" cy="250.8" fill="#FFFFFF" r="11.7"/><circle cx="171.3" cy="266.8" fill="#724938" r="35"/><circle cx="177.3" cy="250.8" fill="#FFFFFF" r="11.7"/></g><ellipse cx="256" cy="375.8" fill="#724938" rx="12" ry="22.3"/><path d="M256,78c0,0-47.6-1.7-90.3,24.9c0,0,7.9,51.3,40.7,83.3c0,0,6.1-18.7,11.4-26.7c0,0,2.5,21.3,38.3,56  c35.7-34.7,38.3-56,38.3-56c5.3,8,11.4,26.7,11.4,26.7c32.7-32,40.7-83.3,40.7-83.3C303.6,76.3,256,78,256,78z" fill="#DB7C44"/><linearGradient gradientUnits="userSpaceOnUse" id="SVGID_3_" x1="256.0005" x2="256.0005" y1="209.8794" y2="81.9419"><stop offset="0" style="stop-color:#FFFFFF;stop-opacity:0"/><stop offset="1" style="stop-color:#FFFFFF;stop-opacity:0.8"/></linearGradient><path d="M256,209.9c-31.7-31.7-34.3-50.7-34.3-50.9l-1.3-10.8l-6,9c-3.6,5.4-7.4,15-9.7,21.4  c-23.9-26.5-32.6-63.7-34.6-73.8c36.6-21.8,76.4-22.9,84.2-22.9c1,0,1.6,0,1.6,0l0.1,0l0.1,0c0,0,0.6,0,1.6,0  c7.7,0,47.6,1.1,84.2,22.9c-2,10.1-10.7,47.3-34.6,73.8c-2.3-6.4-6.1-16-9.7-21.4l-6-9l-1.3,10.8C290.3,159.2,287.3,178.6,256,209.9  z" fill="url(#SVGID_3_)"/></svg>