<?xml version="1.0" ?><svg enable-background="new 0 0 512 512" id="Layer_1" version="1.1" viewBox="0 0 512 512" xml:space="preserve" xmlns="http://www.w3.org/2000/svg" xmlns:xlink="http://www.w3.org/1999/xlink"><circle cx="256" cy="256" fill="#F8E586" r="183.7"/><path d="M393.7,310.8c-31.7,0-57.3,25.7-57.3,57.3c0,16.8,7.2,32,18.8,42.4c32.6-21,58.2-52,72.3-88.8  C418,314.9,406.4,310.8,393.7,310.8z" fill="#DE6C52"/><path d="M118.6,310.8c31.7,0,57.3,25.7,57.3,57.3c0,16.8-7.2,32-18.8,42.4c-32.6-21-58.2-52-72.3-88.8  C94.3,314.9,105.9,310.8,118.6,310.8z" fill="#DE6C52"/><linearGradient gradientUnits="userSpaceOnUse" id="SVGID_1_" x1="255.9994" x2="255.9994" y1="432.6668" y2="79.3338"><stop offset="0" style="stop-color:#FFFFFF;stop-opacity:0"/><stop offset="1" style="stop-color:#FFFFFF;stop-opacity:0.8"/></linearGradient><path d="M256,432.7c-97.4,0-176.7-79.3-176.7-176.7S158.6,79.3,256,79.3S432.7,158.6,432.7,256  S353.4,432.7,256,432.7z" fill="url(#SVGID_1_)"/><g><defs><circle cx="790.3" cy="256" id="XMLID_1_" r="183.7"/></defs><use fill="#E1C65B" overflow="visible" xlink:href="#XMLID_1_"/><clipPath id="XMLID_3_"><use overflow="visible" xlink:href="#XMLID_1_"/></clipPath><g clip-path="url(#XMLID_3_)"><path d="M454.5,91.7    c-50.8,29.9-98.4,67.3-141.2,112.1c-15.2-14.5-30.4-29.1-45.6-43.6c47-49.2,99.2-90.2,154.9-123C433.2,55.4,443.9,73.5,454.5,91.7    z" fill="#ECD160" stroke="#1B1613" stroke-miterlimit="10" stroke-width="4.7334"/><path d="M785.1,2C670.6,2,556.2,31.9,454.5,91.7    c-10.7-18.1-21.3-36.3-32-54.4c111.5-65.6,237-98.4,362.5-98.4C785.1-40.1,785.1-19,785.1,2z" fill="#ECD160" stroke="#1B1613" stroke-miterlimit="10" stroke-width="4.7334"/><path d="M631.5,85.4c-100.5,27-195.2,81-272.5,162    c-15.2-14.5-30.4-29.1-45.6-43.6C398.9,114.1,503.8,54.3,615,24.4C620.5,44.7,626,65,631.5,85.4z" fill="#ECD160" stroke="#1B1613" stroke-miterlimit="10" stroke-width="4.7334"/><path d="M518.5,200.6    c-41,24.1-79.4,54.3-113.9,90.4c-15.2-14.5-30.4-29.1-45.6-43.6c38.7-40.5,81.7-74.3,127.6-101.3    C497.2,164.3,507.8,182.4,518.5,200.6z" fill="#ECD160" stroke="#1B1613" stroke-miterlimit="10" stroke-width="4.7334"/><path d="M785.1,128.2    c-92.3,0-184.6,24.1-266.6,72.3c-10.7-18.1-21.3-36.3-32-54.4c91.8-54,195.2-81,298.5-81C785.1,86.1,785.1,107.2,785.1,128.2z" fill="#ECD160" stroke="#1B1613" stroke-miterlimit="10" stroke-width="4.7334"/><path d="M664.4,207.2    c-79,21.2-153.4,63.7-214.1,127.3C435,320,419.8,305.5,404.6,291c69.1-72.3,153.6-120.6,243.3-144.7    C653.4,166.6,658.9,186.9,664.4,207.2z" fill="#ECD160" stroke="#1B1613" stroke-miterlimit="10" stroke-width="4.7334"/><path d="M582.5,309.4    c-31.2,18.3-60.3,41.2-86.6,68.7c-15.2-14.5-30.4-29.1-45.6-43.6c30.4-31.8,64.2-58.4,100.2-79.6    C561.1,273.1,571.8,291.3,582.5,309.4z" fill="#ECD160" stroke="#1B1613" stroke-miterlimit="10" stroke-width="4.7334"/><path d="M697.3,329.1    c-57.4,15.4-111.6,46.3-155.8,92.6c-15.2-14.5-30.4-29.1-45.6-43.6c52.5-55,116.7-91.6,184.9-110    C686.3,288.5,691.8,308.8,697.3,329.1z" fill="#ECD160" stroke="#1B1613" stroke-miterlimit="10" stroke-width="4.7334"/></g></g><g><circle cx="347.7" cy="277" fill="#1B1613" r="32.5"/><circle cx="347.7" cy="271" fill="#FFFFFF" r="22.5"/></g><g><circle cx="164.3" cy="277" fill="#1B1613" r="32.5"/><circle cx="164.3" cy="271" fill="#FFFFFF" r="22.5"/></g><path d="M256,359.2  c0,11-8.9,19.9-19.9,19.9s-19.9-8.9-19.9-19.9" fill="none" stroke="#1B1613" stroke-linecap="round" stroke-miterlimit="10" stroke-width="8.8059"/><path d="M295.7,359.2  c0,11-8.9,19.9-19.9,19.9s-19.9-8.9-19.9-19.9" fill="none" stroke="#1B1613" stroke-linecap="round" stroke-miterlimit="10" stroke-width="8.8059"/></svg>