<?xml version="1.0" ?><svg enable-background="new 0 0 512 512" id="Layer_1" version="1.1" viewBox="0 0 512 512" xml:space="preserve" xmlns="http://www.w3.org/2000/svg" xmlns:xlink="http://www.w3.org/1999/xlink"><circle cx="256" cy="256" fill="#94F7CB" r="183.7"/><linearGradient gradientUnits="userSpaceOnUse" id="SVGID_1_" x1="256" x2="256" y1="370.5076" y2="79.3338"><stop offset="0" style="stop-color:#FFFFFF;stop-opacity:0"/><stop offset="1" style="stop-color:#FFFFFF;stop-opacity:0.8"/></linearGradient><path d="M256,370.5c-5.4,0-10.8-0.8-16-2.4L92.9,323.9c-9-21.5-13.5-44.4-13.5-67.9  c0-97.4,79.3-176.7,176.7-176.7c46.9,0,91.1,18,124.3,50.8c33.2,32.8,51.8,76.7,52.4,123.6c0.3,24.4-4.2,48-13.5,70.2L272,368.2  C266.8,369.7,261.4,370.5,256,370.5z" fill="url(#SVGID_1_)"/><path d="M238,389.5L96.4,346.9c31.6,55.4,91.3,92.7,159.6,92.7c68.4,0,128-37.3,159.6-92.7L274,389.5  C262.3,393,249.7,393,238,389.5z" fill="#6AAD8D"/><path d="M407.9,281.7c0,24.9-20.1,45-45,45s-73.7,4.2-73.7-20.7s48.8-69.3,73.7-69.3S407.9,256.9,407.9,281.7z" fill="#FFFFFF"/><path d="M407.9,281.7c0,24.9-20.1,45-45,45s-73.7,4.2-73.7-20.7s48.8-69.3,73.7-69.3S407.9,256.9,407.9,281.7z" fill="#FFFFFF"/><path d="M340.8,244.2c-24.2,13.7-51.5,43.3-51.5,61.9c0,24.7,48.3,20.7,73.3,20.7c12.3-8,20.4-21.9,20.4-37.7  C382.9,265.2,364.3,245.6,340.8,244.2z" fill="#AF4A60"/><circle cx="323.6" cy="286.1" fill="#FFFFFF" r="8.7"/><path d="M104.2,281.7c0,24.9,20.1,45,45,45s73.7,4.2,73.7-20.7s-48.8-69.3-73.7-69.3S104.2,256.9,104.2,281.7z" fill="#FFFFFF"/><path d="M104.2,281.7c0,24.9,20.1,45,45,45s73.7,4.2,73.7-20.7s-48.8-69.3-73.7-69.3S104.2,256.9,104.2,281.7z" fill="#FFFFFF"/><path d="M171.3,244.2c24.2,13.7,51.5,43.3,51.5,61.9c0,24.7-48.3,20.7-73.3,20.7c-12.3-8-20.4-21.9-20.4-37.7  C129.2,265.2,147.8,245.6,171.3,244.2z" fill="#AF4A60"/><circle cx="188.5" cy="286.1" fill="#FFFFFF" r="8.7"/><path d="M235.7,179.9c-17.2,17.2-24.6,40.5-22.3,63c22.5,2.4,45.7-5.1,63-22.3c17.2-17.2,24.6-40.5,22.3-63  C276.2,155.3,252.9,162.7,235.7,179.9z" fill="#3B8F6F"/></svg>