<?xml version="1.0" ?><svg enable-background="new 0 0 512 512" id="Layer_1" version="1.1" viewBox="0 0 512 512" xml:space="preserve" xmlns="http://www.w3.org/2000/svg" xmlns:xlink="http://www.w3.org/1999/xlink"><circle cx="258.5" cy="256" fill="#975D1E" r="183.7"/><linearGradient gradientUnits="userSpaceOnUse" id="SVGID_1_" x1="258.5158" x2="258.5158" y1="432.6668" y2="79.3338"><stop offset="0" style="stop-color:#FFFFFF;stop-opacity:0"/><stop offset="1" style="stop-color:#FFFFFF;stop-opacity:0.8"/></linearGradient><path d="M258.5,432.7c-97.4,0-176.7-79.3-176.7-176.7S161.1,79.3,258.5,79.3S435.2,158.6,435.2,256  S355.9,432.7,258.5,432.7z" fill="url(#SVGID_1_)"/><path d="M362.8,220.4l31.9,27.1c10.7,9.1,12.4,25,3.9,36.2l-41.8,54.7l-61.7-58.5L362.8,220.4z" fill="#2F2621"/><path d="M156.2,220.4l-31.9,27.1c-10.7,9.1-12.4,25-3.9,36.2l41.8,54.7l61.7-58.5L156.2,220.4z" fill="#2F2621"/><path d="M334,318.8l-151,0l-61.2,59.9c33.6,37.4,82.4,61,136.7,61c56.3,0,106.6-25.3,140.3-65.2L334,318.8z" fill="#F5F2AB"/><linearGradient gradientUnits="userSpaceOnUse" id="SVGID_2_" x1="260.3026" x2="260.3026" y1="435.6665" y2="322.7818"><stop offset="0" style="stop-color:#FFFFFF;stop-opacity:0"/><stop offset="1" style="stop-color:#FFFFFF;stop-opacity:0.8"/></linearGradient><path d="M258.5,435.7c-49.6,0-97.2-20.7-131.1-56.8l57.3-56h147.8l60.7,52.1  C359,413.6,310.2,435.7,258.5,435.7z" fill="url(#SVGID_2_)"/><polygon fill="#C28F9E" points="258.5,357.2 334,318.8 258.5,243.3 183,318.8 "/><linearGradient gradientUnits="userSpaceOnUse" id="SVGID_3_" x1="258.5155" x2="258.5155" y1="352.7261" y2="248.9615"><stop offset="0" style="stop-color:#FFFFFF;stop-opacity:0"/><stop offset="1" style="stop-color:#FFFFFF;stop-opacity:0.8"/></linearGradient><polygon fill="url(#SVGID_3_)" points="189.8,317.7 258.5,249 327.3,317.7 258.5,352.7 "/><polygon fill="#895D6C" points="258.5,357.8 190.8,323.3 258.5,391.1 326.3,323.3 "/><linearGradient gradientUnits="userSpaceOnUse" id="SVGID_4_" x1="258.516" x2="258.516" y1="385.4392" y2="338.3464"><stop offset="0" style="stop-color:#FFFFFF;stop-opacity:0"/><stop offset="1" style="stop-color:#FFFFFF;stop-opacity:0.8"/></linearGradient><polygon fill="url(#SVGID_4_)" points="211.4,338.3 258.5,362.3 305.6,338.3 258.5,385.4 "/><polygon fill="#F5F2AB" points="258.5,243.3 394.5,143.3 382.8,174.8 413.8,171.8 398.8,198.8 428,206.1 "/><linearGradient gradientUnits="userSpaceOnUse" id="SVGID_5_" x1="343.2665" x2="343.2665" y1="235.3511" y2="154.4185"><stop offset="0" style="stop-color:#FFFFFF;stop-opacity:0"/><stop offset="1" style="stop-color:#FFFFFF;stop-opacity:0.8"/></linearGradient><polygon fill="url(#SVGID_5_)" points="386.1,154.4 376.9,179.4 406.6,176.6 392.8,201.4 410.5,205.8 276.1,235.4 "/><path d="M258.5,243.3l104.2-22.9l-14.6,37.1c-3.1,7.8-9.4,13.9-17.4,16.6l-30.8,10.6L258.5,243.3z" fill="#FFFFFF"/><path d="M299.9,284.7l22.5-7.8c3.4-6.4,5.4-13.7,5.4-21.5c0-9.5-2.9-18.4-8-25.7l-61.4,13.5L299.9,284.7z" fill="#030000"/><ellipse cx="301.2" cy="252.6" fill="#FFFFFF" rx="10.3" ry="12.8"/><polygon fill="#F5F2AB" points="258.5,243.3 122.6,143.3 134.2,174.8 103.2,171.8 118.2,198.8 89,206.1 "/><linearGradient gradientUnits="userSpaceOnUse" id="SVGID_6_" x1="173.7655" x2="173.7655" y1="235.3511" y2="154.4185"><stop offset="0" style="stop-color:#FFFFFF;stop-opacity:0"/><stop offset="1" style="stop-color:#FFFFFF;stop-opacity:0.8"/></linearGradient><polygon fill="url(#SVGID_6_)" points="106.6,205.8 124.2,201.4 110.4,176.6 140.1,179.4 130.9,154.4 241,235.4 "/><path d="M258.5,243.3l-104.2-22.9l14.6,37.1c3.1,7.8,9.4,13.9,17.4,16.6l30.8,10.6L258.5,243.3z" fill="#FFFFFF"/><path d="M217.1,284.7l-22.5-7.8c-3.4-6.4-5.4-13.7-5.4-21.5c0-9.5,2.9-18.4,8-25.7l61.4,13.5L217.1,284.7z" fill="#030000"/><ellipse cx="215.9" cy="252.6" fill="#FFFFFF" rx="10.3" ry="12.8"/><polygon fill="#975D1E" points="288.3,129.2 258.5,83.2 228.7,129.2 185.6,107.2 258.5,239.8 331.5,107.2 "/><linearGradient gradientUnits="userSpaceOnUse" id="SVGID_7_" x1="258.5155" x2="258.5155" y1="231.5122" y2="90.5708"><stop offset="0" style="stop-color:#FFFFFF;stop-opacity:0"/><stop offset="1" style="stop-color:#FFFFFF;stop-opacity:0.8"/></linearGradient><polygon fill="url(#SVGID_7_)" points="195.3,116.7 230.1,134.4 258.5,90.6 286.9,134.4 321.7,116.7 258.5,231.5 "/></svg>