<?xml version="1.0" ?><svg enable-background="new 0 0 512 512" id="Layer_1" version="1.1" viewBox="0 0 512 512" xml:space="preserve" xmlns="http://www.w3.org/2000/svg" xmlns:xlink="http://www.w3.org/1999/xlink"><circle cx="260.3" cy="256" fill="#56829F" r="183.7"/><linearGradient gradientUnits="userSpaceOnUse" id="SVGID_1_" x1="260.3025" x2="260.3025" y1="432.6668" y2="79.3338"><stop offset="0" style="stop-color:#FFFFFF;stop-opacity:0"/><stop offset="1" style="stop-color:#FFFFFF;stop-opacity:0.8"/></linearGradient><path d="M260.3,432.7c-97.4,0-176.7-79.3-176.7-176.7S162.9,79.3,260.3,79.3S437,158.6,437,256  S357.7,432.7,260.3,432.7z" fill="url(#SVGID_1_)"/><g><ellipse cx="331.5" cy="324" fill="#FF8B8E" rx="9.7" ry="13.7"/><circle cx="330.8" cy="319.9" fill="#FFFFFF" r="5.9"/></g><g><ellipse cx="200.5" cy="324" fill="#FF8B8E" rx="9.7" ry="13.7"/><circle cx="199.8" cy="319.9" fill="#FFFFFF" r="5.9"/></g><path d="M287.3,343.2c0,13-8.5,23.5-19,23.5s-19-10.5-19-23.5H287.3z" fill="#FF8B8E"/><path d="M173.2,223.1c23.7,23.7,56.3,33.1,87.1,28.3c4.8-30.8-4.6-63.4-28.3-87.1c-23.7-23.7-56.3-33.1-87.1-28.3  C140.1,166.8,149.5,199.3,173.2,223.1z" fill="#43A536"/><linearGradient gradientUnits="userSpaceOnUse" id="SVGID_2_" x1="202.6139" x2="202.6139" y1="248.6018" y2="138.7688"><stop offset="0" style="stop-color:#FFFFFF;stop-opacity:0"/><stop offset="1" style="stop-color:#FFFFFF;stop-opacity:0.8"/></linearGradient><path d="M244.6,248.6c-25.9,0-50.2-10.1-68.5-28.4c-21.1-21.1-31.3-51.1-27.6-80.7c4-0.5,8.1-0.8,12.2-0.8  c25.9,0,50.2,10.1,68.5,28.4c21.1,21.1,31.3,51.1,27.6,80.7C252.7,248.3,248.6,248.6,244.6,248.6  C244.6,248.6,244.6,248.6,244.6,248.6z" fill="url(#SVGID_2_)"/><path d="M288.6,164.3c-23.7,23.7-33.1,56.3-28.3,87.1c30.8,4.8,63.4-4.6,87.1-28.3c23.7-23.7,33.1-56.3,28.3-87.1  C344.9,131.2,312.3,140.6,288.6,164.3z" fill="#43A536"/><linearGradient gradientUnits="userSpaceOnUse" id="SVGID_3_" x1="317.9911" x2="317.9911" y1="248.6018" y2="138.7688"><stop offset="0" style="stop-color:#FFFFFF;stop-opacity:0"/><stop offset="1" style="stop-color:#FFFFFF;stop-opacity:0.8"/></linearGradient><path d="M276,248.6c-4.1,0-8.2-0.3-12.2-0.8c-3.7-29.6,6.5-59.6,27.6-80.7c18.3-18.3,42.6-28.4,68.5-28.4  c4.1,0,8.2,0.3,12.2,0.8c3.7,29.6-6.5,59.6-27.6,80.7C326.2,238.5,301.9,248.6,276,248.6C276,248.6,276,248.6,276,248.6z" fill="url(#SVGID_3_)"/><path d="M218.8,169.8c0,33.5,16.4,63.2,41.5,81.6c25.2-18.3,41.5-48,41.5-81.6c0-33.5-16.4-63.2-41.5-81.6  C235.1,106.5,218.8,136.3,218.8,169.8z" fill="#43A536"/><linearGradient gradientUnits="userSpaceOnUse" id="SVGID_4_" x1="260.3026" x2="260.3026" y1="246.3694" y2="93.2112"><stop offset="0" style="stop-color:#FFFFFF;stop-opacity:0"/><stop offset="1" style="stop-color:#FFFFFF;stop-opacity:0.8"/></linearGradient><path d="M260.3,246.4c-23.6-18.3-37.5-46.7-37.5-76.6s14-58.3,37.5-76.6c23.6,18.3,37.5,46.7,37.5,76.6  S283.9,228.1,260.3,246.4z" fill="url(#SVGID_4_)"/></svg>