<?xml version="1.0" ?><svg enable-background="new 0 0 512 512" id="Layer_1" version="1.1" viewBox="0 0 512 512" xml:space="preserve" xmlns="http://www.w3.org/2000/svg" xmlns:xlink="http://www.w3.org/1999/xlink"><circle cx="256.7" cy="256" fill="#F7EEC1" r="183.7"/><linearGradient gradientUnits="userSpaceOnUse" id="SVGID_1_" x1="256.6544" x2="256.6544" y1="432.6668" y2="79.3338"><stop offset="0" style="stop-color:#FFFFFF;stop-opacity:0"/><stop offset="1" style="stop-color:#FFFFFF;stop-opacity:0.8"/></linearGradient><path d="M256.7,432.7C159.2,432.7,80,353.4,80,256S159.2,79.3,256.7,79.3S433.3,158.6,433.3,256  S354.1,432.7,256.7,432.7z" fill="url(#SVGID_1_)"/><path d="M170.7,109.9c0,0,0.1,0.3,0.3,0.9c0.2,0.5,0.5,1.4,1,2.4c0.9,2,2.1,4.9,3.8,8.2c1.7,3.3,3.7,7.2,6.1,11.2  c1.2,2,2.4,4.1,3.7,6.1c1.3,2.1,2.6,4.2,4,6.2c1.4,2.1,2.7,4.1,4.2,6.1c1.4,2,2.8,4,4.2,5.8c2.8,3.7,5.5,7.2,7.9,10  c2.4,2.9,4.5,5.2,6.1,6.8c0.7,0.8,1.4,1.4,1.8,1.8c0.4,0.4,0.7,0.6,0.7,0.6s-0.1-0.3-0.3-0.9c-0.2-0.5-0.5-1.4-1-2.4  c-0.9-2-2.1-4.9-3.8-8.2c-1.7-3.3-3.7-7.2-6.1-11.2c-1.2-2-2.4-4.1-3.7-6.1c-1.3-2.1-2.6-4.2-4-6.2c-1.4-2.1-2.7-4.1-4.2-6.1  c-1.4-2-2.8-4-4.2-5.8c-2.8-3.7-5.5-7.2-7.9-10c-2.4-2.9-4.5-5.2-6-6.8c-0.7-0.8-1.4-1.4-1.8-1.8  C170.9,110.1,170.7,109.9,170.7,109.9z" fill="#D5C7A2"/><path d="M361.3,109.9c0,0-0.1,0.3-0.3,0.9c-0.2,0.5-0.5,1.4-1,2.4c-0.9,2-2.1,4.9-3.8,8.2c-1.7,3.3-3.7,7.2-6.1,11.2  c-1.2,2-2.4,4.1-3.7,6.1c-1.3,2.1-2.6,4.2-4,6.2c-1.4,2.1-2.7,4.1-4.2,6.1c-1.4,2-2.8,4-4.2,5.8c-2.8,3.7-5.5,7.2-7.9,10  c-2.4,2.9-4.5,5.2-6.1,6.8c-0.7,0.8-1.4,1.4-1.8,1.8c-0.4,0.4-0.7,0.6-0.7,0.6s0.1-0.3,0.3-0.9c0.2-0.5,0.5-1.4,1-2.4  c0.9-2,2.1-4.9,3.8-8.2c1.7-3.3,3.7-7.2,6.1-11.2c1.2-2,2.4-4.1,3.7-6.1c1.3-2.1,2.6-4.2,4-6.2c1.4-2.1,2.7-4.1,4.2-6.1  c1.4-2,2.8-4,4.2-5.8c2.8-3.7,5.5-7.2,7.9-10c2.4-2.9,4.5-5.2,6-6.8c0.7-0.8,1.4-1.4,1.8-1.8C361.1,110.1,361.3,109.9,361.3,109.9z" fill="#D5C7A2"/><path d="M434.8,278c0,0-0.3,0.2-0.8,0.5c-0.5,0.3-1.2,0.8-2.2,1.3c-1.9,1.1-4.7,2.6-8,4.3c-3.4,1.7-7.3,3.5-11.6,5.3  c-2.1,0.9-4.4,1.8-6.6,2.7c-2.3,0.9-4.6,1.7-6.9,2.6c-2.3,0.8-4.7,1.6-7,2.4c-2.3,0.8-4.6,1.5-6.8,2.1c-4.5,1.3-8.7,2.4-12.3,3.3  c-3.6,0.8-6.7,1.4-8.9,1.8c-1.1,0.2-2,0.3-2.5,0.4c-0.6,0.1-0.9,0.1-0.9,0.1s0.3-0.2,0.8-0.5c0.5-0.3,1.2-0.8,2.2-1.3  c1.9-1.1,4.7-2.6,8-4.3c3.4-1.7,7.3-3.5,11.6-5.3c2.1-0.9,4.4-1.8,6.6-2.7c2.3-0.9,4.6-1.7,6.9-2.6c2.3-0.8,4.7-1.6,7-2.4  c2.3-0.8,4.6-1.5,6.8-2.1c4.5-1.3,8.7-2.4,12.3-3.3c3.6-0.8,6.7-1.4,8.9-1.8c1.1-0.2,2-0.3,2.5-0.4C434.5,278.1,434.8,278,434.8,278  z" fill="#D5C7A2"/><path d="M434.8,303.7c0,0-0.3,0.2-0.8,0.5c-0.5,0.3-1.2,0.8-2.2,1.3c-1.9,1.1-4.7,2.6-8,4.3  c-3.4,1.7-7.3,3.5-11.6,5.3c-2.1,0.9-4.4,1.8-6.6,2.7c-2.3,0.9-4.6,1.7-6.9,2.6c-2.3,0.8-4.7,1.6-7,2.4c-2.3,0.8-4.6,1.5-6.8,2.1  c-4.5,1.3-8.7,2.4-12.3,3.3c-3.6,0.8-6.7,1.4-8.9,1.8c-1.1,0.2-2,0.3-2.5,0.4c-0.6,0.1-0.9,0.1-0.9,0.1s0.3-0.2,0.8-0.5  c0.5-0.3,1.2-0.8,2.2-1.3c1.9-1.1,4.7-2.6,8-4.3c3.4-1.7,7.3-3.5,11.6-5.3c2.1-0.9,4.4-1.8,6.6-2.7c2.3-0.9,4.6-1.7,6.9-2.6  c2.3-0.8,4.7-1.6,7-2.4c2.3-0.8,4.6-1.5,6.8-2.1c4.5-1.3,8.7-2.4,12.3-3.3c3.6-0.8,6.7-1.4,8.9-1.8c1.1-0.2,2-0.3,2.5-0.4  C434.5,303.7,434.8,303.7,434.8,303.7z" fill="#D5C7A2"/><path d="M92.6,278c0,0,0.3,0.2,0.8,0.5c0.5,0.3,1.2,0.8,2.2,1.3c1.9,1.1,4.7,2.6,8,4.3c3.4,1.7,7.3,3.5,11.6,5.3  c2.1,0.9,4.4,1.8,6.6,2.7c2.3,0.9,4.6,1.7,6.9,2.6c2.3,0.8,4.7,1.6,7,2.4c2.3,0.8,4.6,1.5,6.8,2.1c4.5,1.3,8.7,2.4,12.3,3.3  c3.6,0.8,6.7,1.4,8.9,1.8c1.1,0.2,2,0.3,2.5,0.4c0.6,0.1,0.9,0.1,0.9,0.1s-0.3-0.2-0.8-0.5c-0.5-0.3-1.2-0.8-2.2-1.3  c-1.9-1.1-4.7-2.6-8-4.3c-3.4-1.7-7.3-3.5-11.6-5.3c-2.1-0.9-4.4-1.8-6.6-2.7c-2.3-0.9-4.6-1.7-6.9-2.6c-2.3-0.8-4.7-1.6-7-2.4  c-2.3-0.8-4.6-1.5-6.8-2.1c-4.5-1.3-8.7-2.4-12.3-3.3c-3.6-0.8-6.7-1.4-8.9-1.8c-1.1-0.2-2-0.3-2.5-0.4  C92.9,278.1,92.6,278,92.6,278z" fill="#D5C7A2"/><path d="M92.6,303.7c0,0,0.3,0.2,0.8,0.5c0.5,0.3,1.2,0.8,2.2,1.3c1.9,1.1,4.7,2.6,8,4.3c3.4,1.7,7.3,3.5,11.6,5.3  c2.1,0.9,4.4,1.8,6.6,2.7c2.3,0.9,4.6,1.7,6.9,2.6c2.3,0.8,4.7,1.6,7,2.4c2.3,0.8,4.6,1.5,6.8,2.1c4.5,1.3,8.7,2.4,12.3,3.3  c3.6,0.8,6.7,1.4,8.9,1.8c1.1,0.2,2,0.3,2.5,0.4c0.6,0.1,0.9,0.1,0.9,0.1s-0.3-0.2-0.8-0.5c-0.5-0.3-1.2-0.8-2.2-1.3  c-1.9-1.1-4.7-2.6-8-4.3c-3.4-1.7-7.3-3.5-11.6-5.3c-2.1-0.9-4.4-1.8-6.6-2.7c-2.3-0.9-4.6-1.7-6.9-2.6c-2.3-0.8-4.7-1.6-7-2.4  c-2.3-0.8-4.6-1.5-6.8-2.1c-4.5-1.3-8.7-2.4-12.3-3.3c-3.6-0.8-6.7-1.4-8.9-1.8c-1.1-0.2-2-0.3-2.5-0.4  C92.9,303.7,92.6,303.7,92.6,303.7z" fill="#D5C7A2"/><path d="M264.3,226.7L264.3,226.7c-21.3,0-38.7-17.4-38.7-38.7v-55.3c0-21.3,17.4-38.7,38.7-38.7h0  c21.3,0,38.7,17.4,38.7,38.7v55.3C302.9,209.3,285.5,226.7,264.3,226.7z" fill="#F6E7B0"/><linearGradient gradientUnits="userSpaceOnUse" id="SVGID_2_" x1="264.2555" x2="264.2555" y1="221.7126" y2="99.0978"><stop offset="0" style="stop-color:#FFFFFF;stop-opacity:0"/><stop offset="1" style="stop-color:#FFFFFF;stop-opacity:0.8"/></linearGradient><path d="M264.3,221.7L264.3,221.7c-19.7,0-35.7-16.1-35.7-35.7v-51.1c0-19.7,16.1-35.7,35.7-35.7h0  c19.7,0,35.7,16.1,35.7,35.7V186C300,205.6,283.9,221.7,264.3,221.7z" fill="url(#SVGID_2_)"/><line fill="none" stroke="#231F20" stroke-miterlimit="10" stroke-width="0.9614" x1="228.5" x2="300" y1="132.7" y2="132.7"/><line fill="none" stroke="#231F20" stroke-miterlimit="10" stroke-width="0.9614" x1="228.5" x2="300" y1="160.4" y2="160.4"/><line fill="none" stroke="#231F20" stroke-miterlimit="10" stroke-width="0.9614" x1="228.5" x2="300" y1="188.1" y2="188.1"/><path d="M300,369.1c0,19.7-16,35.7-35.7,35.7c-19.7,0-35.7-16-35.7-35.7H300z" fill="#9B677E"/><polygon fill="#FFFFFF" points="233.8,369.1 237.8,377.2 241.1,369.1 "/><polygon fill="#FFFFFF" points="285.8,369.1 289.8,377.2 293.1,369.1 "/><g><ellipse cx="338.2" cy="291.4" fill="#FFFFFF" rx="49.3" ry="56.5"/><path d="M338.2,247.8c0,0,0.1,0.3,0.2,0.9   c0.1,0.6,0.3,1.5,0.5,2.6c0.4,2.2,0.9,5.4,1.4,9.2c0.4,3.8,0.8,8.2,1.1,13c0.1,2.4,0.2,4.8,0.3,7.3c0.1,2.5,0.1,5,0.1,7.6   c0,2.5,0,5.1-0.1,7.6c-0.1,2.5-0.2,4.9-0.3,7.3c-0.3,4.7-0.7,9.2-1.1,13c-0.4,3.8-0.9,7-1.4,9.2c-0.2,1.1-0.4,2-0.5,2.6   c-0.1,0.6-0.2,0.9-0.2,0.9s-0.1-0.3-0.2-0.9c-0.1-0.6-0.3-1.5-0.5-2.6c-0.4-2.2-0.9-5.4-1.4-9.2c-0.4-3.8-0.8-8.2-1.1-13   c-0.1-2.4-0.2-4.8-0.3-7.3c-0.1-2.5-0.1-5-0.1-7.6c0-2.5,0-5.1,0.1-7.6c0.1-2.5,0.2-4.9,0.3-7.3c0.3-4.7,0.7-9.2,1.1-13   c0.4-3.8,0.9-7,1.4-9.2c0.2-1.1,0.4-2,0.5-2.6C338.2,248.1,338.2,247.8,338.2,247.8z" fill="#231F20" stroke="#231F20" stroke-miterlimit="10" stroke-width="1.021"/><ellipse cx="190.3" cy="291.4" fill="#FFFFFF" rx="49.3" ry="56.5"/><path d="M190.3,247.8c0,0,0.1,0.3,0.2,0.9   c0.1,0.6,0.3,1.5,0.5,2.6c0.4,2.2,0.9,5.4,1.4,9.2c0.4,3.8,0.8,8.2,1.1,13c0.1,2.4,0.2,4.8,0.3,7.3c0.1,2.5,0.1,5,0.1,7.6   c0,2.5,0,5.1-0.1,7.6c-0.1,2.5-0.2,4.9-0.3,7.3c-0.3,4.7-0.7,9.2-1.1,13c-0.4,3.8-0.9,7-1.4,9.2c-0.2,1.1-0.4,2-0.5,2.6   c-0.1,0.6-0.2,0.9-0.2,0.9s-0.1-0.3-0.2-0.9c-0.1-0.6-0.3-1.5-0.5-2.6c-0.4-2.2-0.9-5.4-1.4-9.2c-0.4-3.8-0.8-8.2-1.1-13   c-0.1-2.4-0.2-4.8-0.3-7.3c-0.1-2.5-0.1-5-0.1-7.6c0-2.5,0-5.1,0.1-7.6c0.1-2.5,0.2-4.9,0.3-7.3c0.3-4.7,0.7-9.2,1.1-13   c0.4-3.8,0.9-7,1.4-9.2c0.2-1.1,0.4-2,0.5-2.6C190.2,248.1,190.3,247.8,190.3,247.8z" fill="#231F20" stroke="#231F20" stroke-miterlimit="10" stroke-width="1.021"/></g></svg>